<?xml version="1.0" encoding="utf-8"?>
<!-- Generator: Adobe Illustrator 22.1.0, SVG Export Plug-In . SVG Version: 6.00 Build 0)  -->
<svg version="1.1" id="Layer_1" xmlns="http://www.w3.org/2000/svg" xmlns:xlink="http://www.w3.org/1999/xlink" x="0px" y="0px"
	 viewBox="0 0 2195.2 666" style="enable-background:new 0 0 2195.2 666;" xml:space="preserve">
<style type="text/css">
	.st0{fill:none;stroke:#EC008C;stroke-width:29;stroke-linecap:round;stroke-miterlimit:10;}
	.st1{fill:#318CE7;}
	.st2{fill:#4E4E4E;}
</style>
<g>
	<g>
		<g>
			<path class="st0" d="M1999.8,80.1c0,0,22-2.3,52.2,10.3"/>
			<g>
				<g>
					<path class="st1" d="M1731,100.2c6.8,0,13.6,0.1,20.4,0c6.1-0.7,11.9-5.4,13.2-11.5c0.4-2.8,0.5-5.6-0.2-8.4
						c-1.7-4.9-5.9-8.9-10.9-10.3c-5.4-1-10.9-0.4-16.4-0.6c-2.7-0.1-5.3,0.1-7.9,0.4c-6.1,0.1-11.3,4.9-13.1,10.5
						c-0.8,4-0.9,8.5,1.3,12.1C1720.1,97.1,1725.5,100.4,1731,100.2z"/>
					<path class="st1" d="M2004.1,38.5c-13.8,0-27.1,2-39.7,5.7c-5.7,1.5-11.3,3.4-16.7,5.7c-13.6,5.7-27.6,10.2-41.9,13.7
						c-9.8,2.2-19.6,4.4-29.6,5.3c-5,0.7-10.1,1-15.2,1.6c-17.3,0.3-34.6,0.1-51.9,0.2c-4.5,0.1-9.3-0.6-13.4,1.5
						c-3.9,1.8-7,5.3-8.3,9.4c-1.7,4.3-0.6,9.2,1.7,13c2.9,4.3,7.9,7.2,13.2,7c18.8,0,37.5,0,56.3,0c5-0.3,10.2,1.4,13.7,5.1
						c2.9,3.4,4.2,8.1,3.6,12.5c-0.6,5.2-4.4,9.7-9.1,11.7c-3.9,1.9-8.3,1.5-12.5,1.5c-55.2,0-110.5,0-165.7,0
						c-5.1-0.1-10.5,0.5-15,3.2c-4.3,2.3-7.3,7.1-7.1,12c-0.5,8.2,7.1,15.9,15.3,15.3c47.8,0,95.6,0,143.5,0
						c8,0.2,15.7,7.3,15.1,15.6c0.4,5.2-2.8,10.2-7,13c-4.4,2.9-10,2.6-15,2.3c-15.7,0-31.3-0.1-47,0.1c-2.8-0.3-5.6,0.2-8.4,0.4
						c-5.8,0.8-10.5,5.5-12.1,11.1c-1.1,4.5-0.3,9.5,2.7,13.2c2.9,3.7,7.4,6.4,12.2,6.1c29.9,0,59.8,0,89.7,0
						c7,0.1,13.4,5.6,14.7,12.5c2,8.6-5.2,18-14.1,18.3c-14.6,0-29.3,0-44,0c-6.7,0-12.8,4.9-14.7,11.3c-2.8,8.6,4.2,19.2,13.4,19.2
						c7,0.1,14,0,21,0c10.3,0.1,20.7-0.3,30.9,0.8c26,1.5,52,6.7,76.1,16.7c4.2,1.7,8.4,3.7,12.7,5.3c2.1,0.8,4.3,1.6,6.5,2.3
						c14.4,5,29.9,7.7,46,7.7c77.4,0,140.1-62.7,140.1-140.1S2081.5,38.5,2004.1,38.5z M2016.7,279.4c0,0.7-0.1,1.3-0.2,1.9
						c-1.3,5.1-5.7,9.3-10.9,10.2c-12.4,0.8-24.9-1.6-36.8-5.2c-22.8-7.3-43.2-22-57.1-41.5c-18.3-24.9-25.4-57.5-19.3-87.7
						c4.3-22.5,15.8-43.6,32.3-59.5c3.9-4.1,8.6-7.4,13-11.1c10.3-7.4,21.8-13,34-16.4c7-2.3,14.4-3.2,21.7-4.2
						c4.9-0.3,9.9-1,14.8-0.3c13.4,0.5,26.6,3.7,38.9,8.7c4.2,1.8,7.6,5.7,8.3,10.3c0.2,2.7,0.2,5.6-1.1,8.1
						c-2.2,4.9-7.5,8.1-12.8,7.7c-2.7,0.1-5.2-1.1-7.7-2.1c-14.6-5.7-30.7-6.8-46.1-4.2c-23.4,4.2-44.8,18.7-57.3,38.9
						c-7.2,11.3-11.4,24.2-12.8,37.5c-0.2,5.4-0.2,10.7,0,16.1c1.9,22,12.8,42.9,29.6,57.2c15.4,13.4,35.7,20.7,56.1,20.9
						c4.7-0.3,9,2.5,11.5,6.3C2016.6,273.5,2016.9,276.5,2016.7,279.4z M2084.5,117l-58.6,58.6c0.2,1.2,0.3,2.4,0.3,3.6
						c0,12.6-10.2,22.8-22.8,22.8s-22.8-10.2-22.8-22.8s10.2-22.8,22.8-22.8c1.1,0,2.1,0.1,3.1,0.2l58.8-58.8
						c5.3-5.3,13.9-5.3,19.2,0C2089.8,103.1,2089.8,111.7,2084.5,117z"/>
				</g>
			</g>
		</g>
	</g>
	<g>
		<path class="st2" d="M137.8,263.5H180l85.2,224h-49.7l-20.1-48.7h-79.7l-15.6,48.7H51.2L137.8,263.5z M130.7,396.1l51.5,0.5
			l-26.3-75.4L130.7,396.1z"/>
		<path class="st2" d="M311.6,255.6c7.5,0,13.5,2.7,17.9,8s6.6,11.3,6.6,17.9s-2.1,12.5-6.3,17.6s-10.3,7.6-18.2,7.6
			c-8,0-14.3-2.7-18.9-8c-4.6-5.3-7-11.2-7-17.6s2.3-12.3,7-17.6C297.4,258.2,303.7,255.6,311.6,255.6z M289.1,319.2h43.7v168.4
			h-43.7V319.2z"/>
		<path class="st2" d="M376.6,487.5V319.2h43.7v11.3c9.3-9.7,20.2-14.7,32.8-14.9c12.6-0.2,23.5,3.4,32.8,10.9l-12.6,43.7
			c-9.3-7.1-18.1-10.4-26.5-9.9c-8.4,0.4-14.9,2.8-19.6,7c-4.6,4.2-7,10.5-7,18.9v101.4h-43.6V487.5z"/>
		<path class="st2" d="M575.5,421.9c16.3,15.5,33.8,24.1,52.4,25.9c18.6,1.8,31.3-1.3,38.1-9.3s8.4-16,4.6-24.2
			c-3.8-8.2-21.4-15.5-53-21.9s-51.6-19.2-60-38.4s-6.6-39.4,5.3-60.6c11.9-21.2,33.8-32.3,65.6-33.1c31.8-0.9,60.3,10.4,85.5,33.8
			l-31.8,31.8c-17.7-14.1-35.4-21.3-53-21.5c-17.7-0.2-27.5,5.6-29.5,17.6s7.5,20.1,28.5,24.5s40.8,11,59.3,19.9
			c18.6,8.8,28.8,24.5,30.8,47.1c2,22.5-4.1,40.9-18.2,55c-14.1,14.1-33.6,21.7-58.3,22.5c-24.7,0.9-45.5-2.7-62.3-10.6
			c-16.8-8-28.4-17.3-35-28.2L575.5,421.9z"/>
		<path class="st2" d="M894.4,403.4c0,29.6-7.5,51.6-22.5,66s-32.9,21.3-53.7,20.9c-20.8-0.4-38.2-8.6-52.4-24.5
			c-14.1-15.9-21.3-37.5-21.5-64.6c-0.2-27.2,7-48.3,21.5-63.3c14.6-15,31.8-22.6,51.7-22.9c19.9-0.2,37.7,6.7,53.4,20.9
			C886.5,349.9,894.4,372.4,894.4,403.4z M849.9,403.4c0-14.1-2.7-25.1-8-32.8s-12.7-11.7-22.2-11.9s-17.1,3.4-22.9,10.9
			c-5.7,7.5-8.6,18.2-8.6,32.1s2.7,25,8,33.1c5.3,8.2,12.7,12.4,22.2,12.6c9.5,0.2,17.1-4.1,22.9-12.9
			C847.1,425.7,849.9,415.3,849.9,403.4z"/>
		<path class="st2" d="M926.2,487.5V274.8l43.7-21.9v234.6H926.2z"/>
		<path class="st2" d="M1013.7,319.2h43.7v93.5c0,11,2,19.8,6,26.2s10.9,9.5,20.9,9.3c9.9-0.2,17.3-3.5,22.2-9.9
			c4.9-6.4,7.3-16,7.3-28.8v-90.1h43.7v168.4h-43.7v-11.9c-13.7,9.7-27.5,14.7-41.4,14.9s-27.2-4.7-39.8-14.9
			c-12.6-10.2-18.9-30.3-18.9-60.3L1013.7,319.2L1013.7,319.2z"/>
		<path class="st2" d="M1262.9,255.6v64.3h39.8l0.2,42.1h-39.8l-0.2,68.6c0,10.2,3.8,15.9,11.3,17.2s17-3.1,28.5-13.3l-6.5,46.4
			c-13.8,7.1-27.1,9.9-39.9,8.6c-12.8-1.3-22.2-6.7-28.2-16.2s-9-20-9.1-31.5v-79.9h-28.7V320h28.7v-44.1L1262.9,255.6z"/>
		<path class="st2" d="M1368.9,255.6c7.5,0,13.5,2.7,17.9,8s6.6,11.3,6.6,17.9s-2.1,12.5-6.3,17.6c-4.2,5.1-10.3,7.6-18.2,7.6
			c-8,0-14.3-2.7-18.9-8s-7-11.2-7-17.6s2.3-12.3,7-17.6C1354.7,258.2,1361,255.6,1368.9,255.6z M1346.4,319.2h43.7v168.4h-43.7
			V319.2z"/>
		<path class="st2" d="M1571.8,403.4c0,29.6-7.5,51.6-22.5,66s-32.9,21.3-53.7,20.9c-20.8-0.4-38.2-8.6-52.4-24.5
			c-14.1-15.9-21.3-37.5-21.5-64.6c-0.2-27.2,7-48.3,21.5-63.3c14.6-15,31.8-22.6,51.7-22.9c19.9-0.2,37.7,6.7,53.4,20.9
			C1563.9,349.9,1571.8,372.4,1571.8,403.4z M1527.4,403.4c0-14.1-2.7-25.1-8-32.8s-12.7-11.7-22.2-11.9s-17.1,3.4-22.9,10.9
			c-5.7,7.5-8.6,18.2-8.6,32.1s2.7,25,8,33.1c5.3,8.2,12.7,12.4,22.2,12.6c9.5,0.2,17.1-4.1,22.9-12.9
			C1524.5,425.7,1527.4,415.3,1527.4,403.4z"/>
		<path class="st2" d="M1648,319.2v9.9c14.1-10.2,29.1-14.8,44.7-13.9c15.7,0.9,29.1,7,40.1,18.2c11,11.3,16.6,29.1,16.6,53.4v100.7
			H1706v-102c-0.2-7.1-3-13.6-8.3-19.6s-12.3-8.9-20.9-8.9s-15.6,2.8-20.9,8.3s-8,12-8,19.6v102.7h-44.1l-0.3-168.4L1648,319.2
			L1648,319.2z"/>
		<path class="st2" d="M1920.4,330.5l-13.9,36.5c-17.2-8.4-31.7-12.9-43.4-13.6c-11.7-0.7-19.6,0.1-23.5,2.3c-4,2.2-5.7,5.5-5.3,9.9
			s7.5,8.8,21.2,13.3c13.7,4.4,28.7,10.5,45.1,18.2c16.3,7.7,24.4,21.2,24.2,40.4s-6.9,32.9-19.9,41.1c-13,8.2-30,12.2-51,11.9
			c-21-0.2-44.1-6.5-69.3-18.9l16.6-35.8c16.3,8.8,31.3,14,44.7,15.6c13.5,1.5,22.9,0.8,28.2-2.3s7.3-7.3,6-12.6
			s-10.1-10.1-26.2-14.3c-16.1-4.2-30.6-9.9-43.4-17.2c-12.8-7.3-19.6-19.7-20.2-37.1c-0.7-17.5,4.7-30.6,16.2-39.4
			s27.5-13.4,48.1-13.6C1875,314.7,1897,319.9,1920.4,330.5z"/>
	</g>
	<g>
		<path class="st1" d="M1398.9,543.4h12.5l25.1,66h-14.6L1416,595h-23.5l-4.6,14.4h-14.4L1398.9,543.4z M1396.8,582.4l15.2,0.1
			l-7.8-22.2L1396.8,582.4z"/>
		<path class="st1" d="M1444.9,543.4h31.3c7.2,0,12.7,2.1,16.6,6.4c3.8,4.3,5.6,10.1,5.2,17.5s-4.5,12.9-12.3,16.7l12.5,25.4h-15.4
			l-11.8-23.6l-13.1,0.1v23.5h-13L1444.9,543.4L1444.9,543.4z M1457.9,556.5v17h17c2.9,0,5.2-0.8,7-2.4c1.8-1.6,2.7-3.7,2.7-6.3
			s-0.9-4.6-2.7-6.1c-1.8-1.4-4-2.1-6.6-2.1h-17.4V556.5z"/>
		<path class="st1" d="M1531,542.7c4.4-0.7,9-0.5,13.7,0.6c7.8,2.2,13.3,7.2,16.4,15l-11.8,5.9c-3.9-7-9.6-9.8-17-8.5
			c-3.5,0.9-6.3,2.8-8.5,5.9c-1.5,1.5-2.6,4.3-3.3,8.5c-2.2,13.9,1.7,23.1,11.8,27.4c7.8,1.3,13.3-1.1,16.4-7.2v-2.6h-10.5v-12.4
			h23.5c2.2,20.5-5.2,32.2-22.2,35.3c-17.9,1.3-28.5-8.1-32-28.3C1506.2,560.3,1514,547.1,1531,542.7z"/>
		<path class="st1" d="M1575.1,543.4h45.1v13.1h-32v11.8h19v12.4h-19V597h34v12.4h-47.1V543.4z"/>
		<path class="st1" d="M1635.8,543.4h13.1l28.3,39.8v-39.8h13.1v66h-13.1l-28.3-43.4v43.4h-13.1V543.4z"/>
		<path class="st1" d="M1700.7,543.4h51v13.1h-18.9v52.9H1719v-52.9h-18.3V543.4z"/>
		<path class="st1" d="M1763.4,543.4h13v66h-13V543.4z"/>
		<path class="st1" d="M1790.7,543.4h13.1l28.3,39.8v-39.8h13.1v66h-13.1l-28.3-43.4v43.4h-13.1V543.4z"/>
		<path class="st1" d="M1877.8,543.4h12.5l25.1,66h-14.6l-5.9-14.4h-23.5l-4.6,14.4h-14.4L1877.8,543.4z M1875.7,582.4l15.2,0.1
			l-7.8-22.2L1875.7,582.4z"/>
	</g>
</g>
</svg>
